<?xml version="1.0" encoding="UTF-8" standalone="no"?>
<!-- Generator: Gravit.io -->
<svg xmlns="http://www.w3.org/2000/svg" xmlns:xlink="http://www.w3.org/1999/xlink" style="isolation:isolate" viewBox="0 0 1000 500" width="1000pt" height="500pt"><defs><clipPath id="_clipPath_QCqUQoPkMuSKr6NNaErZFSd8pTpzJggA"><rect width="1000" height="500"/></clipPath></defs><g clip-path="url(#_clipPath_QCqUQoPkMuSKr6NNaErZFSd8pTpzJggA)"><rect x="0" y="32" width="71.429" height="325" transform="matrix(1,0,0,1,0,0)" fill="none"/><rect x="0" y="32" width="71.429" height="325" transform="matrix(1,0,0,1,0,0)" fill="rgb(235,235,235)"/><rect x="0" y="32" width="71.429" height="325" transform="matrix(1,0,0,1,0,0)" fill="rgb(255,255,255)"/><g style="isolation: isolate;"><mask id="_mask_f0JQnDBuhLSwY5wZatjpCbJquWpcR6sL"><rect x="0" y="32" width="71.429" height="325" fill="white" stroke="none"/></mask><rect x="0" y="32" width="71.429" height="325" transform="matrix(1,0,0,1,0,0)" fill="none" mask="url(#_mask_f0JQnDBuhLSwY5wZatjpCbJquWpcR6sL)" vector-effect="non-scaling-stroke" stroke-width="2" stroke="rgb(0,0,0)" stroke-linejoin="miter" stroke-linecap="square" stroke-miterlimit="2"/></g><rect x="71.429" y="32" width="71.429" height="325" transform="matrix(1,0,0,1,0,0)" fill="none"/><rect x="71.429" y="32" width="71.429" height="325" transform="matrix(1,0,0,1,0,0)" fill="rgb(235,235,235)"/><rect x="71.429" y="32" width="71.429" height="325" transform="matrix(1,0,0,1,0,0)" fill="rgb(255,255,255)"/><g style="isolation: isolate;"><mask id="_mask_A0OPc3oZcv39zLMS81hhWiL73t813EZe"><rect x="71.429" y="32" width="71.429" height="325" fill="white" stroke="none"/></mask><rect x="71.429" y="32" width="71.429" height="325" transform="matrix(1,0,0,1,0,0)" fill="none" mask="url(#_mask_A0OPc3oZcv39zLMS81hhWiL73t813EZe)" vector-effect="non-scaling-stroke" stroke-width="2" stroke="rgb(0,0,0)" stroke-linejoin="miter" stroke-linecap="square" stroke-miterlimit="2"/></g><rect x="142.857" y="32" width="71.429" height="325" transform="matrix(1,0,0,1,0,0)" fill="none"/><rect x="142.857" y="32" width="71.429" height="325" transform="matrix(1,0,0,1,0,0)" fill="rgb(235,235,235)"/><rect x="142.857" y="32" width="71.429" height="325" transform="matrix(1,0,0,1,0,0)" fill="rgb(255,255,255)"/><g style="isolation: isolate;"><mask id="_mask_Fe6ZLs8o8SCpIGBrNRJLwr7U8zOaMCEn"><rect x="142.857" y="32" width="71.429" height="325" fill="white" stroke="none"/></mask><rect x="142.857" y="32" width="71.429" height="325" transform="matrix(1,0,0,1,0,0)" fill="none" mask="url(#_mask_Fe6ZLs8o8SCpIGBrNRJLwr7U8zOaMCEn)" vector-effect="non-scaling-stroke" stroke-width="2" stroke="rgb(0,0,0)" stroke-linejoin="miter" stroke-linecap="square" stroke-miterlimit="2"/></g><rect x="214.286" y="32" width="71.429" height="325" transform="matrix(1,0,0,1,0,0)" fill="none"/><rect x="214.286" y="32" width="71.429" height="325" transform="matrix(1,0,0,1,0,0)" fill="rgb(235,235,235)"/><rect x="214.286" y="32" width="71.429" height="325" transform="matrix(1,0,0,1,0,0)" fill="rgb(255,255,255)"/><g style="isolation: isolate;"><mask id="_mask_lhP9X8l2pSJOxtR3Rudd6Icf3MxKnsE3"><rect x="214.286" y="32" width="71.429" height="325" fill="white" stroke="none"/></mask><rect x="214.286" y="32" width="71.429" height="325" transform="matrix(1,0,0,1,0,0)" fill="none" mask="url(#_mask_lhP9X8l2pSJOxtR3Rudd6Icf3MxKnsE3)" vector-effect="non-scaling-stroke" stroke-width="2" stroke="rgb(0,0,0)" stroke-linejoin="miter" stroke-linecap="square" stroke-miterlimit="2"/></g><rect x="285.714" y="32" width="71.429" height="325" transform="matrix(1,0,0,1,0,0)" fill="none"/><rect x="285.714" y="32" width="71.429" height="325" transform="matrix(1,0,0,1,0,0)" fill="rgb(235,235,235)"/><rect x="285.714" y="32" width="71.429" height="325" transform="matrix(1,0,0,1,0,0)" fill="rgb(255,255,255)"/><g style="isolation: isolate;"><mask id="_mask_lWcvV3HEY89N9B23xGNUCwkk9tZHnEBB"><rect x="285.714" y="32" width="71.429" height="325" fill="white" stroke="none"/></mask><rect x="285.714" y="32" width="71.429" height="325" transform="matrix(1,0,0,1,0,0)" fill="none" mask="url(#_mask_lWcvV3HEY89N9B23xGNUCwkk9tZHnEBB)" vector-effect="non-scaling-stroke" stroke-width="2" stroke="rgb(0,0,0)" stroke-linejoin="miter" stroke-linecap="square" stroke-miterlimit="2"/></g><rect x="357.143" y="32" width="71.429" height="325" transform="matrix(1,0,0,1,0,0)" fill="none"/><rect x="357.143" y="32" width="71.429" height="325" transform="matrix(1,0,0,1,0,0)" fill="rgb(235,235,235)"/><rect x="357.143" y="32" width="71.429" height="325" transform="matrix(1,0,0,1,0,0)" fill="rgb(255,255,255)"/><g style="isolation: isolate;"><mask id="_mask_Axh1ZF9yagjvlMzcR2J6Wp0kCx5fW91u"><rect x="357.143" y="32" width="71.429" height="325" fill="white" stroke="none"/></mask><rect x="357.143" y="32" width="71.429" height="325" transform="matrix(1,0,0,1,0,0)" fill="none" mask="url(#_mask_Axh1ZF9yagjvlMzcR2J6Wp0kCx5fW91u)" vector-effect="non-scaling-stroke" stroke-width="2" stroke="rgb(0,0,0)" stroke-linejoin="miter" stroke-linecap="square" stroke-miterlimit="2"/></g><rect x="428.571" y="32" width="71.429" height="325" transform="matrix(1,0,0,1,0,0)" fill="none"/><rect x="428.571" y="32" width="71.429" height="325" transform="matrix(1,0,0,1,0,0)" fill="rgb(235,235,235)"/><rect x="428.571" y="32" width="71.429" height="325" transform="matrix(1,0,0,1,0,0)" fill="rgb(255,255,255)"/><g style="isolation: isolate;"><mask id="_mask_LAsullu1SNICwjHDkjSfMKEqHUHbSHFY"><rect x="428.571" y="32" width="71.429" height="325" fill="white" stroke="none"/></mask><rect x="428.571" y="32" width="71.429" height="325" transform="matrix(1,0,0,1,0,0)" fill="none" mask="url(#_mask_LAsullu1SNICwjHDkjSfMKEqHUHbSHFY)" vector-effect="non-scaling-stroke" stroke-width="2" stroke="rgb(0,0,0)" stroke-linejoin="miter" stroke-linecap="square" stroke-miterlimit="2"/></g><rect x="500" y="32" width="71.429" height="325" transform="matrix(1,0,0,1,0,0)" fill="none"/><rect x="500" y="32" width="71.429" height="325" transform="matrix(1,0,0,1,0,0)" fill="rgb(235,235,235)"/><rect x="500" y="32" width="71.429" height="325" transform="matrix(1,0,0,1,0,0)" fill="rgb(255,255,255)"/><g style="isolation: isolate;"><mask id="_mask_reuNlzfTrLabmipGWkgVzDNxHYkqhXYR"><rect x="500" y="32" width="71.429" height="325" fill="white" stroke="none"/></mask><rect x="500" y="32" width="71.429" height="325" transform="matrix(1,0,0,1,0,0)" fill="none" mask="url(#_mask_reuNlzfTrLabmipGWkgVzDNxHYkqhXYR)" vector-effect="non-scaling-stroke" stroke-width="2" stroke="rgb(0,0,0)" stroke-linejoin="miter" stroke-linecap="square" stroke-miterlimit="2"/></g><rect x="571.429" y="32" width="71.429" height="325" transform="matrix(1,0,0,1,0,0)" fill="none"/><rect x="571.429" y="32" width="71.429" height="325" transform="matrix(1,0,0,1,0,0)" fill="rgb(235,235,235)"/><rect x="571.429" y="32" width="71.429" height="325" transform="matrix(1,0,0,1,0,0)" fill="rgb(255,255,255)"/><g style="isolation: isolate;"><mask id="_mask_DExm43cGKqprJIWynmFE0MKZVAtzfVYT"><rect x="571.429" y="32" width="71.429" height="325" fill="white" stroke="none"/></mask><rect x="571.429" y="32" width="71.429" height="325" transform="matrix(1,0,0,1,0,0)" fill="none" mask="url(#_mask_DExm43cGKqprJIWynmFE0MKZVAtzfVYT)" vector-effect="non-scaling-stroke" stroke-width="2" stroke="rgb(0,0,0)" stroke-linejoin="miter" stroke-linecap="square" stroke-miterlimit="2"/></g><rect x="642.857" y="32" width="71.429" height="325" transform="matrix(1,0,0,1,0,0)" fill="none"/><rect x="642.857" y="32" width="71.429" height="325" transform="matrix(1,0,0,1,0,0)" fill="rgb(235,235,235)"/><rect x="642.857" y="32" width="71.429" height="325" transform="matrix(1,0,0,1,0,0)" fill="rgb(255,255,255)"/><g style="isolation: isolate;"><mask id="_mask_taGrDbosExvCC3Eruq8iV3wj8mWBqKvY"><rect x="642.857" y="32" width="71.429" height="325" fill="white" stroke="none"/></mask><rect x="642.857" y="32" width="71.429" height="325" transform="matrix(1,0,0,1,0,0)" fill="none" mask="url(#_mask_taGrDbosExvCC3Eruq8iV3wj8mWBqKvY)" vector-effect="non-scaling-stroke" stroke-width="2" stroke="rgb(0,0,0)" stroke-linejoin="miter" stroke-linecap="square" stroke-miterlimit="2"/></g><rect x="714.286" y="32" width="71.429" height="325" transform="matrix(1,0,0,1,0,0)" fill="none"/><rect x="714.286" y="32" width="71.429" height="325" transform="matrix(1,0,0,1,0,0)" fill="rgb(235,235,235)"/><rect x="714.286" y="32" width="71.429" height="325" transform="matrix(1,0,0,1,0,0)" fill="rgb(255,255,255)"/><g style="isolation: isolate;"><mask id="_mask_pFnxoDcDXKxieccbwLNJ0csbF8IufE5e"><rect x="714.286" y="32" width="71.429" height="325" fill="white" stroke="none"/></mask><rect x="714.286" y="32" width="71.429" height="325" transform="matrix(1,0,0,1,0,0)" fill="none" mask="url(#_mask_pFnxoDcDXKxieccbwLNJ0csbF8IufE5e)" vector-effect="non-scaling-stroke" stroke-width="2" stroke="rgb(0,0,0)" stroke-linejoin="miter" stroke-linecap="square" stroke-miterlimit="2"/></g><rect x="785.714" y="32" width="71.429" height="325" transform="matrix(1,0,0,1,0,0)" fill="none"/><rect x="785.714" y="32" width="71.429" height="325" transform="matrix(1,0,0,1,0,0)" fill="rgb(235,235,235)"/><rect x="785.714" y="32" width="71.429" height="325" transform="matrix(1,0,0,1,0,0)" fill="rgb(255,255,255)"/><g style="isolation: isolate;"><mask id="_mask_W44swNMdWswK6Myc5GfoZeBjle4Na9fx"><rect x="785.714" y="32" width="71.429" height="325" fill="white" stroke="none"/></mask><rect x="785.714" y="32" width="71.429" height="325" transform="matrix(1,0,0,1,0,0)" fill="none" mask="url(#_mask_W44swNMdWswK6Myc5GfoZeBjle4Na9fx)" vector-effect="non-scaling-stroke" stroke-width="2" stroke="rgb(0,0,0)" stroke-linejoin="miter" stroke-linecap="square" stroke-miterlimit="2"/></g><rect x="857.143" y="32" width="71.429" height="325" transform="matrix(1,0,0,1,0,0)" fill="none"/><rect x="857.143" y="32" width="71.429" height="325" transform="matrix(1,0,0,1,0,0)" fill="rgb(235,235,235)"/><rect x="857.143" y="32" width="71.429" height="325" transform="matrix(1,0,0,1,0,0)" fill="rgb(255,255,255)"/><g style="isolation: isolate;"><mask id="_mask_lktCiMzHpuQe9gtry8sQELboRkkcCB4x"><rect x="857.143" y="32" width="71.429" height="325" fill="white" stroke="none"/></mask><rect x="857.143" y="32" width="71.429" height="325" transform="matrix(1,0,0,1,0,0)" fill="none" mask="url(#_mask_lktCiMzHpuQe9gtry8sQELboRkkcCB4x)" vector-effect="non-scaling-stroke" stroke-width="2" stroke="rgb(0,0,0)" stroke-linejoin="miter" stroke-linecap="square" stroke-miterlimit="2"/></g><rect x="928.571" y="32" width="71.429" height="325" transform="matrix(1,0,0,1,0,0)" fill="none"/><rect x="928.571" y="32" width="71.429" height="325" transform="matrix(1,0,0,1,0,0)" fill="rgb(235,235,235)"/><rect x="928.571" y="32" width="71.429" height="325" transform="matrix(1,0,0,1,0,0)" fill="rgb(255,255,255)"/><g style="isolation: isolate;"><mask id="_mask_3CJESeSNxvifS0cLuLU2q2m14bWkdRay"><rect x="928.571" y="32" width="71.429" height="325" fill="white" stroke="none"/></mask><rect x="928.571" y="32" width="71.429" height="325" transform="matrix(1,0,0,1,0,0)" fill="none" mask="url(#_mask_3CJESeSNxvifS0cLuLU2q2m14bWkdRay)" vector-effect="non-scaling-stroke" stroke-width="2" stroke="rgb(0,0,0)" stroke-linejoin="miter" stroke-linecap="square" stroke-miterlimit="2"/></g><rect x="55.861" y="32" width="32.051" height="231.232" transform="matrix(1,0,0,1,0,0)" fill="rgb(0,0,0)"/><rect x="126.832" y="32" width="32.051" height="231.232" transform="matrix(1,0,0,1,0,0)" fill="rgb(0,0,0)"/><rect x="555.632" y="32" width="32.051" height="231.232" transform="matrix(1,0,0,1,0,0)" fill="rgb(0,0,0)"/><rect x="626.603" y="32" width="32.051" height="231.232" transform="matrix(1,0,0,1,0,0)" fill="rgb(0,0,0)"/><rect x="269.918" y="32" width="32.051" height="231.232" transform="matrix(1,0,0,1,0,0)" fill="rgb(0,0,0)"/><rect x="340.888" y="32" width="32.051" height="231.232" transform="matrix(1,0,0,1,0,0)" fill="rgb(0,0,0)"/><rect x="769.918" y="32" width="32.051" height="231.232" transform="matrix(1,0,0,1,0,0)" fill="rgb(0,0,0)"/><rect x="840.888" y="32" width="32.051" height="231.232" transform="matrix(1,0,0,1,0,0)" fill="rgb(0,0,0)"/><rect x="912.546" y="32" width="32.051" height="231.232" transform="matrix(1,0,0,1,0,0)" fill="rgb(0,0,0)"/><rect x="412.546" y="32" width="32.051" height="231.232" transform="matrix(1,0,0,1,0,0)" fill="rgb(0,0,0)"/><g clip-path="url(#_clipPath_53QcePLb7VUFjjUVRMtntM9P72J9xKys)"><text transform="matrix(1.113,0,0,1,432.436,465.19)" style="font-family:'Allerta Stencil';font-weight:400;font-size:99px;font-style:normal;fill:#000000;stroke:none;">trancefish</text></g><defs><clipPath id="_clipPath_53QcePLb7VUFjjUVRMtntM9P72J9xKys"><rect x="0" y="0" width="510" height="126.554" transform="matrix(1.113,0,0,1,432.436,363)"/></clipPath></defs></g></svg>