<?xml version="1.0" encoding="UTF-8" standalone="no"?>
<!-- Generator: Gravit.io -->
<svg xmlns="http://www.w3.org/2000/svg" xmlns:xlink="http://www.w3.org/1999/xlink" style="isolation:isolate" viewBox="0 0 1000 500" width="1000pt" height="500pt"><defs><clipPath id="_clipPath_eapuvov6h19BvRbAAcNEhJihSEV6eC9o"><rect width="1000" height="500"/></clipPath></defs><g clip-path="url(#_clipPath_eapuvov6h19BvRbAAcNEhJihSEV6eC9o)"><rect x="0" y="32" width="71.429" height="325" transform="matrix(1,0,0,1,0,0)" fill="none"/><rect x="0" y="32" width="71.429" height="325" transform="matrix(1,0,0,1,0,0)" fill="rgb(235,235,235)"/><rect x="0" y="32" width="71.429" height="325" transform="matrix(1,0,0,1,0,0)" fill="rgb(255,255,255)"/><g style="isolation: isolate;"><mask id="_mask_nzd0Cn446WEu9e4d31ZiiCyVdjU1iRD2"><rect x="0" y="32" width="71.429" height="325" fill="white" stroke="none"/></mask><rect x="0" y="32" width="71.429" height="325" transform="matrix(1,0,0,1,0,0)" fill="none" mask="url(#_mask_nzd0Cn446WEu9e4d31ZiiCyVdjU1iRD2)" vector-effect="non-scaling-stroke" stroke-width="2" stroke="rgb(0,0,0)" stroke-linejoin="miter" stroke-linecap="square" stroke-miterlimit="2"/></g><rect x="71.429" y="32" width="71.429" height="325" transform="matrix(1,0,0,1,0,0)" fill="none"/><rect x="71.429" y="32" width="71.429" height="325" transform="matrix(1,0,0,1,0,0)" fill="rgb(235,235,235)"/><rect x="71.429" y="32" width="71.429" height="325" transform="matrix(1,0,0,1,0,0)" fill="rgb(255,255,255)"/><g style="isolation: isolate;"><mask id="_mask_gPhzwJGZHzrj0Bk0ctY4Apz4jJ8dxXjs"><rect x="71.429" y="32" width="71.429" height="325" fill="white" stroke="none"/></mask><rect x="71.429" y="32" width="71.429" height="325" transform="matrix(1,0,0,1,0,0)" fill="none" mask="url(#_mask_gPhzwJGZHzrj0Bk0ctY4Apz4jJ8dxXjs)" vector-effect="non-scaling-stroke" stroke-width="2" stroke="rgb(0,0,0)" stroke-linejoin="miter" stroke-linecap="square" stroke-miterlimit="2"/></g><rect x="142.857" y="32" width="71.429" height="325" transform="matrix(1,0,0,1,0,0)" fill="none"/><rect x="142.857" y="32" width="71.429" height="325" transform="matrix(1,0,0,1,0,0)" fill="rgb(235,235,235)"/><rect x="142.857" y="32" width="71.429" height="325" transform="matrix(1,0,0,1,0,0)" fill="rgb(255,255,255)"/><g style="isolation: isolate;"><mask id="_mask_cpRtR9yuNBqQBY3MOtVwqw4YEKsJyYOK"><rect x="142.857" y="32" width="71.429" height="325" fill="white" stroke="none"/></mask><rect x="142.857" y="32" width="71.429" height="325" transform="matrix(1,0,0,1,0,0)" fill="none" mask="url(#_mask_cpRtR9yuNBqQBY3MOtVwqw4YEKsJyYOK)" vector-effect="non-scaling-stroke" stroke-width="2" stroke="rgb(0,0,0)" stroke-linejoin="miter" stroke-linecap="square" stroke-miterlimit="2"/></g><rect x="214.286" y="32" width="71.429" height="325" transform="matrix(1,0,0,1,0,0)" fill="none"/><rect x="214.286" y="32" width="71.429" height="325" transform="matrix(1,0,0,1,0,0)" fill="rgb(235,235,235)"/><rect x="214.286" y="32" width="71.429" height="325" transform="matrix(1,0,0,1,0,0)" fill="rgb(255,255,255)"/><g style="isolation: isolate;"><mask id="_mask_84lnAMZlnrurK7pEkBLL7BgLzx8SdzPh"><rect x="214.286" y="32" width="71.429" height="325" fill="white" stroke="none"/></mask><rect x="214.286" y="32" width="71.429" height="325" transform="matrix(1,0,0,1,0,0)" fill="none" mask="url(#_mask_84lnAMZlnrurK7pEkBLL7BgLzx8SdzPh)" vector-effect="non-scaling-stroke" stroke-width="2" stroke="rgb(0,0,0)" stroke-linejoin="miter" stroke-linecap="square" stroke-miterlimit="2"/></g><rect x="285.714" y="32" width="71.429" height="325" transform="matrix(1,0,0,1,0,0)" fill="none"/><rect x="285.714" y="32" width="71.429" height="325" transform="matrix(1,0,0,1,0,0)" fill="rgb(235,235,235)"/><rect x="285.714" y="32" width="71.429" height="325" transform="matrix(1,0,0,1,0,0)" fill="rgb(255,255,255)"/><g style="isolation: isolate;"><mask id="_mask_PG3xIwpfZH6506Bw1zofMUWXAA64Czzc"><rect x="285.714" y="32" width="71.429" height="325" fill="white" stroke="none"/></mask><rect x="285.714" y="32" width="71.429" height="325" transform="matrix(1,0,0,1,0,0)" fill="none" mask="url(#_mask_PG3xIwpfZH6506Bw1zofMUWXAA64Czzc)" vector-effect="non-scaling-stroke" stroke-width="2" stroke="rgb(0,0,0)" stroke-linejoin="miter" stroke-linecap="square" stroke-miterlimit="2"/></g><rect x="357.143" y="32" width="71.429" height="325" transform="matrix(1,0,0,1,0,0)" fill="none"/><rect x="357.143" y="32" width="71.429" height="325" transform="matrix(1,0,0,1,0,0)" fill="rgb(235,235,235)"/><rect x="357.143" y="32" width="71.429" height="325" transform="matrix(1,0,0,1,0,0)" fill="rgb(255,255,255)"/><g style="isolation: isolate;"><mask id="_mask_oqyF05AtGPzI8EbTBObvFHspCxSKpL6s"><rect x="357.143" y="32" width="71.429" height="325" fill="white" stroke="none"/></mask><rect x="357.143" y="32" width="71.429" height="325" transform="matrix(1,0,0,1,0,0)" fill="none" mask="url(#_mask_oqyF05AtGPzI8EbTBObvFHspCxSKpL6s)" vector-effect="non-scaling-stroke" stroke-width="2" stroke="rgb(0,0,0)" stroke-linejoin="miter" stroke-linecap="square" stroke-miterlimit="2"/></g><rect x="428.571" y="32" width="71.429" height="325" transform="matrix(1,0,0,1,0,0)" fill="none"/><rect x="428.571" y="32" width="71.429" height="325" transform="matrix(1,0,0,1,0,0)" fill="rgb(235,235,235)"/><rect x="428.571" y="32" width="71.429" height="325" transform="matrix(1,0,0,1,0,0)" fill="rgb(255,255,255)"/><g style="isolation: isolate;"><mask id="_mask_dvg4VTyrw06yjk8SIAO3kL1LPjjSXSzI"><rect x="428.571" y="32" width="71.429" height="325" fill="white" stroke="none"/></mask><rect x="428.571" y="32" width="71.429" height="325" transform="matrix(1,0,0,1,0,0)" fill="none" mask="url(#_mask_dvg4VTyrw06yjk8SIAO3kL1LPjjSXSzI)" vector-effect="non-scaling-stroke" stroke-width="2" stroke="rgb(0,0,0)" stroke-linejoin="miter" stroke-linecap="square" stroke-miterlimit="2"/></g><rect x="500" y="32" width="71.429" height="325" transform="matrix(1,0,0,1,0,0)" fill="none"/><rect x="500" y="32" width="71.429" height="325" transform="matrix(1,0,0,1,0,0)" fill="rgb(235,235,235)"/><rect x="500" y="32" width="71.429" height="325" transform="matrix(1,0,0,1,0,0)" fill="rgb(255,255,255)"/><g style="isolation: isolate;"><mask id="_mask_4cM3150g3ZFOzYAacAyJ8EiyoIcqxW7M"><rect x="500" y="32" width="71.429" height="325" fill="white" stroke="none"/></mask><rect x="500" y="32" width="71.429" height="325" transform="matrix(1,0,0,1,0,0)" fill="none" mask="url(#_mask_4cM3150g3ZFOzYAacAyJ8EiyoIcqxW7M)" vector-effect="non-scaling-stroke" stroke-width="2" stroke="rgb(0,0,0)" stroke-linejoin="miter" stroke-linecap="square" stroke-miterlimit="2"/></g><rect x="571.429" y="32" width="71.429" height="325" transform="matrix(1,0,0,1,0,0)" fill="none"/><rect x="571.429" y="32" width="71.429" height="325" transform="matrix(1,0,0,1,0,0)" fill="rgb(235,235,235)"/><rect x="571.429" y="32" width="71.429" height="325" transform="matrix(1,0,0,1,0,0)" fill="rgb(255,255,255)"/><g style="isolation: isolate;"><mask id="_mask_ucL0dkLi5kiNVFhhPIWxe7nX6F09EwfT"><rect x="571.429" y="32" width="71.429" height="325" fill="white" stroke="none"/></mask><rect x="571.429" y="32" width="71.429" height="325" transform="matrix(1,0,0,1,0,0)" fill="none" mask="url(#_mask_ucL0dkLi5kiNVFhhPIWxe7nX6F09EwfT)" vector-effect="non-scaling-stroke" stroke-width="2" stroke="rgb(0,0,0)" stroke-linejoin="miter" stroke-linecap="square" stroke-miterlimit="2"/></g><rect x="642.857" y="32" width="71.429" height="325" transform="matrix(1,0,0,1,0,0)" fill="none"/><rect x="642.857" y="32" width="71.429" height="325" transform="matrix(1,0,0,1,0,0)" fill="rgb(235,235,235)"/><rect x="642.857" y="32" width="71.429" height="325" transform="matrix(1,0,0,1,0,0)" fill="rgb(255,255,255)"/><g style="isolation: isolate;"><mask id="_mask_nDjRO2YZdI2N2zDTLRkqag2g2f8Lg03I"><rect x="642.857" y="32" width="71.429" height="325" fill="white" stroke="none"/></mask><rect x="642.857" y="32" width="71.429" height="325" transform="matrix(1,0,0,1,0,0)" fill="none" mask="url(#_mask_nDjRO2YZdI2N2zDTLRkqag2g2f8Lg03I)" vector-effect="non-scaling-stroke" stroke-width="2" stroke="rgb(0,0,0)" stroke-linejoin="miter" stroke-linecap="square" stroke-miterlimit="2"/></g><rect x="714.286" y="32" width="71.429" height="325" transform="matrix(1,0,0,1,0,0)" fill="none"/><rect x="714.286" y="32" width="71.429" height="325" transform="matrix(1,0,0,1,0,0)" fill="rgb(235,235,235)"/><rect x="714.286" y="32" width="71.429" height="325" transform="matrix(1,0,0,1,0,0)" fill="rgb(255,255,255)"/><g style="isolation: isolate;"><mask id="_mask_cnHLHSvy2Mby5TaJ1ihOW8M6bQv5jPMF"><rect x="714.286" y="32" width="71.429" height="325" fill="white" stroke="none"/></mask><rect x="714.286" y="32" width="71.429" height="325" transform="matrix(1,0,0,1,0,0)" fill="none" mask="url(#_mask_cnHLHSvy2Mby5TaJ1ihOW8M6bQv5jPMF)" vector-effect="non-scaling-stroke" stroke-width="2" stroke="rgb(0,0,0)" stroke-linejoin="miter" stroke-linecap="square" stroke-miterlimit="2"/></g><rect x="785.714" y="32" width="71.429" height="325" transform="matrix(1,0,0,1,0,0)" fill="none"/><rect x="785.714" y="32" width="71.429" height="325" transform="matrix(1,0,0,1,0,0)" fill="rgb(235,235,235)"/><rect x="785.714" y="32" width="71.429" height="325" transform="matrix(1,0,0,1,0,0)" fill="rgb(255,255,255)"/><g style="isolation: isolate;"><mask id="_mask_yJEkQiVUOS5StLN1Pt6JIsWSGweqTOF3"><rect x="785.714" y="32" width="71.429" height="325" fill="white" stroke="none"/></mask><rect x="785.714" y="32" width="71.429" height="325" transform="matrix(1,0,0,1,0,0)" fill="none" mask="url(#_mask_yJEkQiVUOS5StLN1Pt6JIsWSGweqTOF3)" vector-effect="non-scaling-stroke" stroke-width="2" stroke="rgb(0,0,0)" stroke-linejoin="miter" stroke-linecap="square" stroke-miterlimit="2"/></g><rect x="857.143" y="32" width="71.429" height="325" transform="matrix(1,0,0,1,0,0)" fill="none"/><rect x="857.143" y="32" width="71.429" height="325" transform="matrix(1,0,0,1,0,0)" fill="rgb(235,235,235)"/><rect x="857.143" y="32" width="71.429" height="325" transform="matrix(1,0,0,1,0,0)" fill="rgb(255,255,255)"/><g style="isolation: isolate;"><mask id="_mask_AYiNMsJ9plV30eg6dyg3wJ0yWRks7aVv"><rect x="857.143" y="32" width="71.429" height="325" fill="white" stroke="none"/></mask><rect x="857.143" y="32" width="71.429" height="325" transform="matrix(1,0,0,1,0,0)" fill="none" mask="url(#_mask_AYiNMsJ9plV30eg6dyg3wJ0yWRks7aVv)" vector-effect="non-scaling-stroke" stroke-width="2" stroke="rgb(0,0,0)" stroke-linejoin="miter" stroke-linecap="square" stroke-miterlimit="2"/></g><rect x="928.571" y="32" width="71.429" height="325" transform="matrix(1,0,0,1,0,0)" fill="none"/><rect x="928.571" y="32" width="71.429" height="325" transform="matrix(1,0,0,1,0,0)" fill="rgb(235,235,235)"/><rect x="928.571" y="32" width="71.429" height="325" transform="matrix(1,0,0,1,0,0)" fill="rgb(255,255,255)"/><g style="isolation: isolate;"><mask id="_mask_D6ppXqHI3PwH5fHI37CSHyYU0VrbSd6u"><rect x="928.571" y="32" width="71.429" height="325" fill="white" stroke="none"/></mask><rect x="928.571" y="32" width="71.429" height="325" transform="matrix(1,0,0,1,0,0)" fill="none" mask="url(#_mask_D6ppXqHI3PwH5fHI37CSHyYU0VrbSd6u)" vector-effect="non-scaling-stroke" stroke-width="2" stroke="rgb(0,0,0)" stroke-linejoin="miter" stroke-linecap="square" stroke-miterlimit="2"/></g><rect x="55.861" y="32" width="32.051" height="231.232" transform="matrix(1,0,0,1,0,0)" fill="rgb(0,0,0)"/><rect x="126.832" y="32" width="32.051" height="231.232" transform="matrix(1,0,0,1,0,0)" fill="rgb(0,0,0)"/><rect x="555.632" y="32" width="32.051" height="231.232" transform="matrix(1,0,0,1,0,0)" fill="rgb(0,0,0)"/><rect x="626.603" y="32" width="32.051" height="231.232" transform="matrix(1,0,0,1,0,0)" fill="rgb(0,0,0)"/><rect x="269.918" y="32" width="32.051" height="231.232" transform="matrix(1,0,0,1,0,0)" fill="rgb(0,0,0)"/><rect x="340.888" y="32" width="32.051" height="231.232" transform="matrix(1,0,0,1,0,0)" fill="rgb(0,0,0)"/><rect x="769.918" y="32" width="32.051" height="231.232" transform="matrix(1,0,0,1,0,0)" fill="rgb(0,0,0)"/><rect x="840.888" y="32" width="32.051" height="231.232" transform="matrix(1,0,0,1,0,0)" fill="rgb(0,0,0)"/><rect x="912.546" y="32" width="32.051" height="231.232" transform="matrix(1,0,0,1,0,0)" fill="rgb(0,0,0)"/><rect x="412.546" y="32" width="32.051" height="231.232" transform="matrix(1,0,0,1,0,0)" fill="rgb(0,0,0)"/><path d=" M 459.011 418.591 L 459.011 448.658 L 459.011 448.658 Q 459.011 451.945 459.979 453.782 L 459.979 453.782 L 459.979 453.782 Q 460.947 455.619 462.723 456.586 L 462.723 456.586 L 462.723 456.586 Q 464.498 457.553 466.704 457.794 L 466.704 457.794 L 466.704 457.794 Q 468.909 458.036 471.384 458.036 L 471.384 458.036 L 471.384 465.19 L 471.384 465.19 Q 469.985 465.384 468.587 465.48 L 468.587 465.48 L 468.587 465.48 Q 467.403 465.577 465.735 465.625 L 465.735 465.625 L 465.735 465.625 Q 464.068 465.674 462.454 465.674 L 462.454 465.674 L 462.454 465.674 Q 460.84 465.674 459.172 465.577 L 459.172 465.577 L 459.172 465.577 Q 457.505 465.48 456.321 465.287 L 456.321 465.287 L 456.321 465.287 Q 452.663 464.707 450.619 462.435 L 450.619 462.435 L 450.619 462.435 Q 448.574 460.163 447.552 457.408 L 447.552 457.408 L 447.552 457.408 Q 446.53 454.652 446.261 452.042 L 446.261 452.042 L 446.261 452.042 Q 445.992 449.432 445.992 447.981 L 445.992 447.981 L 445.992 418.591 L 438.03 418.591 L 438.03 410.663 L 445.992 410.663 L 445.992 395.194 L 459.011 395.194 L 459.011 410.663 L 468.694 410.663 L 468.694 418.591 L 459.011 418.591 L 459.011 418.591 Z  M 486.662 410.663 L 498.282 410.663 L 499.681 416.271 L 499.681 445.854 L 499.681 446.048 L 499.681 465.19 L 486.662 465.19 L 486.662 410.663 L 486.662 410.663 Z  M 504.092 422.941 L 504.092 413.08 L 504.092 413.08 Q 506.782 411.727 510.547 411.001 L 510.547 411.001 L 510.547 411.001 Q 514.313 410.276 520.769 410.276 L 520.769 410.276 L 520.769 422.458 L 520.769 422.458 Q 517.756 421.685 513.452 421.588 L 513.452 421.588 L 513.452 421.588 Q 511.085 421.588 508.665 421.926 L 508.665 421.926 L 508.665 421.926 Q 506.244 422.265 504.092 422.941 L 504.092 422.941 L 504.092 422.941 Z  M 545.192 448.755 L 545.192 448.755 L 545.192 448.755 Q 545.192 453.105 547.183 455.232 L 547.183 455.232 L 547.183 455.232 Q 549.173 457.359 552.939 457.746 L 552.939 457.746 L 552.939 465.577 L 552.939 465.577 Q 552.508 465.674 551.54 465.674 L 551.54 465.674 L 551.54 465.674 Q 547.882 465.674 544.493 464.804 L 544.493 464.804 L 544.493 464.804 Q 541.104 463.934 538.521 462 L 538.521 462 L 538.521 462 Q 535.939 460.066 534.487 456.876 L 534.487 456.876 L 534.487 456.876 Q 533.034 453.686 533.034 449.045 L 533.034 449.045 L 533.034 449.045 Q 533.034 444.598 535.132 441.359 L 535.132 441.359 L 535.132 441.359 Q 537.23 438.12 540.512 436.042 L 540.512 436.042 L 540.512 436.042 Q 543.793 433.963 547.989 432.948 L 547.989 432.948 L 547.989 432.948 Q 552.186 431.933 556.489 431.933 L 556.489 431.933 L 561.223 431.933 L 561.223 438.797 L 558.856 438.797 L 558.856 438.797 Q 556.704 438.797 554.337 439.184 L 554.337 439.184 L 554.337 439.184 Q 551.97 439.57 549.926 440.634 L 549.926 440.634 L 549.926 440.634 Q 547.882 441.697 546.537 443.679 L 546.537 443.679 L 546.537 443.679 Q 545.192 445.661 545.192 448.755 Z  M 578.653 448.271 L 578.653 449.045 L 578.653 449.045 Q 578.653 449.818 578.761 451.317 L 578.761 451.317 L 578.761 451.317 Q 578.868 452.815 579.191 454.362 L 579.191 454.362 L 579.191 454.362 Q 579.514 455.909 580.213 457.166 L 580.213 457.166 L 580.213 457.166 Q 580.913 458.423 582.096 458.81 L 582.096 458.81 L 578.653 465.287 L 578.653 465.287 Q 577.255 465.287 575.694 464.707 L 575.694 464.707 L 575.694 464.707 Q 574.134 464.127 572.682 463.063 L 572.682 463.063 L 572.682 463.063 Q 571.229 462 570.207 460.695 L 570.207 460.695 L 570.207 460.695 Q 569.185 459.39 568.647 457.843 L 568.647 457.843 L 568.647 457.843 Q 567.571 460.26 564.397 462.145 L 564.397 462.145 L 564.397 462.145 Q 561.223 464.03 557.35 464.9 L 557.35 464.9 L 557.35 457.553 L 557.35 457.553 Q 559.932 457.069 562.03 455.667 L 562.03 455.667 L 562.03 455.667 Q 564.128 454.266 565.635 452.332 L 565.635 452.332 L 565.635 431.933 L 565.635 431.933 Q 565.635 427.195 565.097 424.392 L 565.097 424.392 L 565.097 424.392 Q 564.559 421.588 563.268 420.283 L 563.268 420.283 L 563.268 420.283 Q 561.976 418.978 560.094 418.639 L 560.094 418.639 L 560.094 418.639 Q 558.211 418.301 555.629 418.301 L 555.629 418.301 L 555.629 418.301 Q 553.261 418.301 551.163 418.833 L 551.163 418.833 L 551.163 418.833 Q 549.065 419.364 547.29 420.089 L 547.29 420.089 L 547.29 420.089 Q 545.515 420.814 544.17 421.685 L 544.17 421.685 L 544.17 421.685 Q 542.825 422.555 542.179 423.038 L 542.179 423.038 L 537.338 416.367 L 537.338 416.367 Q 538.414 415.304 540.566 414.192 L 540.566 414.192 L 540.566 414.192 Q 542.717 413.08 545.515 412.21 L 545.515 412.21 L 545.515 412.21 Q 548.312 411.34 551.594 410.808 L 551.594 410.808 L 551.594 410.808 Q 554.875 410.276 558.426 410.276 L 558.426 410.276 L 558.426 410.276 Q 561.654 410.276 564.72 410.856 L 564.72 410.856 L 564.72 410.856 Q 567.786 411.437 570.315 412.79 L 570.315 412.79 L 570.315 412.79 Q 572.843 414.144 574.726 416.416 L 574.726 416.416 L 574.726 416.416 Q 576.609 418.688 577.362 422.071 L 577.362 422.071 L 577.362 422.071 Q 578.115 425.455 578.384 428.887 L 578.384 428.887 L 578.384 428.887 Q 578.653 432.319 578.653 435.703 L 578.653 435.703 L 578.653 448.271 L 578.653 448.271 Z  M 599.203 410.663 L 610.823 410.663 L 612.222 416.174 L 612.222 465.19 L 599.203 465.19 L 599.203 410.663 L 599.203 410.663 Z  M 644.392 416.657 L 644.392 416.657 L 644.392 416.657 Q 646.221 418.301 647.243 420.476 L 647.243 420.476 L 647.243 420.476 Q 648.265 422.651 648.749 425.02 L 648.749 425.02 L 648.749 425.02 Q 649.234 427.389 649.341 429.806 L 649.341 429.806 L 649.341 429.806 Q 649.449 432.223 649.449 434.543 L 649.449 434.543 L 649.449 463.257 L 649.449 465.19 L 636.323 465.19 L 636.323 435.51 L 636.323 435.51 Q 636.323 432.223 636 429.226 L 636 429.226 L 636 429.226 Q 635.677 426.229 634.493 423.908 L 634.493 423.908 L 634.493 423.908 Q 633.31 421.588 631.266 420.283 L 631.266 420.283 L 631.266 420.283 Q 629.221 418.978 625.563 418.978 L 625.563 418.978 L 625.563 418.978 Q 624.057 418.978 621.529 419.413 L 621.529 419.413 L 621.529 419.413 Q 619 419.848 616.633 420.814 L 616.633 420.814 L 616.633 413.37 L 616.633 413.37 Q 619.538 412.017 622.927 411.05 L 622.927 411.05 L 622.927 411.05 Q 626.316 410.083 629.544 410.083 L 629.544 410.083 L 629.544 410.083 Q 634.386 410.083 637.721 411.872 L 637.721 411.872 L 637.721 411.872 Q 641.057 413.66 644.392 416.657 Z  M 713.574 418.494 L 707.764 424.778 L 707.764 424.778 Q 706.15 423.038 703.299 421.54 L 703.299 421.54 L 703.299 421.54 Q 700.447 420.041 695.713 419.751 L 695.713 419.751 L 695.713 410.47 L 695.713 410.47 Q 701.631 410.76 705.881 412.742 L 705.881 412.742 L 705.881 412.742 Q 710.131 414.724 713.574 418.494 L 713.574 418.494 L 713.574 418.494 Z  M 695.713 465.577 L 695.713 456.006 L 695.713 456.006 Q 699.587 455.619 702.33 454.314 L 702.33 454.314 L 702.33 454.314 Q 705.074 453.009 707.548 451.269 L 707.548 451.269 L 712.39 457.553 L 712.39 457.553 Q 709.055 461.323 705.181 463.305 L 705.181 463.305 L 705.181 463.305 Q 701.308 465.287 695.713 465.577 L 695.713 465.577 L 695.713 465.577 Z  M 665.695 437.927 L 665.695 437.927 L 665.695 437.927 Q 665.695 432.416 667.47 427.582 L 667.47 427.582 L 667.47 427.582 Q 669.246 422.748 672.689 419.074 L 672.689 419.074 L 672.689 419.074 Q 676.132 415.4 680.812 413.128 L 680.812 413.128 L 680.812 413.128 Q 685.492 410.856 691.302 410.47 L 691.302 410.47 L 691.302 419.848 L 691.302 419.848 Q 685.922 420.911 682.695 425.793 L 682.695 425.793 L 682.695 425.793 Q 679.467 430.676 679.467 437.637 L 679.467 437.637 L 679.467 437.637 Q 679.467 441.214 680.274 444.356 L 680.274 444.356 L 680.274 444.356 Q 681.081 447.498 682.587 449.915 L 682.587 449.915 L 682.587 449.915 Q 684.093 452.332 686.299 453.976 L 686.299 453.976 L 686.299 453.976 Q 688.505 455.619 691.302 456.006 L 691.302 456.006 L 691.302 465.577 L 691.302 465.577 Q 685.385 465.287 680.65 463.015 L 680.65 463.015 L 680.65 463.015 Q 675.916 460.743 672.581 457.021 L 672.581 457.021 L 672.581 457.021 Q 669.246 453.299 667.47 448.368 L 667.47 448.368 L 667.47 448.368 Q 665.695 443.438 665.695 437.927 Z  M 758.547 419.268 L 758.547 410.18 L 758.547 410.18 Q 764.357 410.663 769.037 412.983 L 769.037 412.983 L 769.037 412.983 Q 773.718 415.304 777.053 418.978 L 777.053 418.978 L 777.053 418.978 Q 780.388 422.651 782.164 427.389 L 782.164 427.389 L 782.164 427.389 Q 783.939 432.126 783.939 437.25 L 783.939 437.25 L 783.939 437.25 Q 783.939 439.57 783.616 441.891 L 783.616 441.891 L 746.712 441.891 L 746.712 433.383 L 771.566 433.383 L 771.566 433.383 Q 771.566 430.869 770.651 428.549 L 770.651 428.549 L 770.651 428.549 Q 769.737 426.229 767.961 424.247 L 767.961 424.247 L 767.961 424.247 Q 766.186 422.265 763.819 420.911 L 763.819 420.911 L 763.819 420.911 Q 761.452 419.558 758.547 419.268 L 758.547 419.268 L 758.547 419.268 Z  M 758.117 456.103 L 758.117 456.103 L 758.117 456.103 Q 759.3 456.103 761.076 455.861 L 761.076 455.861 L 761.076 455.861 Q 762.851 455.619 764.841 454.991 L 764.841 454.991 L 764.841 454.991 Q 766.832 454.362 768.822 453.396 L 768.822 453.396 L 768.822 453.396 Q 770.813 452.429 772.319 451.075 L 772.319 451.075 L 777.053 457.553 L 777.053 457.553 Q 773.502 461.517 768.768 463.547 L 768.768 463.547 L 768.768 463.547 Q 764.034 465.577 756.718 465.577 L 756.718 465.577 L 756.718 465.577 Q 750.8 465.577 745.636 463.402 L 745.636 463.402 L 745.636 463.402 Q 740.472 461.227 736.814 457.456 L 736.814 457.456 L 736.814 457.456 Q 733.155 453.686 731.004 448.658 L 731.004 448.658 L 731.004 448.658 Q 728.852 443.631 728.852 437.83 L 728.852 437.83 L 728.852 437.83 Q 728.852 432.319 730.842 427.389 L 730.842 427.389 L 730.842 427.389 Q 732.833 422.458 736.276 418.736 L 736.276 418.736 L 736.276 418.736 Q 739.719 415.014 744.291 412.693 L 744.291 412.693 L 744.291 412.693 Q 748.864 410.373 754.136 410.083 L 754.136 410.083 L 754.136 419.364 L 754.136 419.364 Q 750.155 420.041 747.573 422.265 L 747.573 422.265 L 747.573 422.265 Q 744.991 424.488 743.538 427.34 L 743.538 427.34 L 743.538 427.34 Q 742.086 430.192 741.494 433.189 L 741.494 433.189 L 741.494 433.189 Q 740.902 436.187 740.902 438.313 L 740.902 438.313 L 740.902 438.313 Q 740.902 442.084 741.924 445.323 L 741.924 445.323 L 741.924 445.323 Q 742.946 448.562 745.098 450.93 L 745.098 450.93 L 745.098 450.93 Q 747.25 453.299 750.424 454.701 L 750.424 454.701 L 750.424 454.701 Q 753.598 456.103 758.117 456.103 Z  M 827.729 398.191 L 827.729 398.191 L 827.729 398.191 Q 825.577 398.191 824.124 399.158 L 824.124 399.158 L 824.124 399.158 Q 822.672 400.125 821.704 401.865 L 821.704 401.865 L 821.704 401.865 Q 820.735 403.605 820.305 405.877 L 820.305 405.877 L 820.305 405.877 Q 819.875 408.149 819.767 410.663 L 819.767 410.663 L 829.128 410.663 L 829.128 418.591 L 819.552 418.591 L 819.552 423.231 L 819.552 465.19 L 806.426 465.19 L 806.426 423.231 L 806.426 418.591 L 798.464 418.591 L 798.464 410.663 L 806.641 410.663 L 806.641 410.663 Q 806.964 406.506 807.932 402.687 L 807.932 402.687 L 807.932 402.687 Q 808.9 398.868 810.998 396.016 L 810.998 396.016 L 810.998 396.016 Q 813.096 393.164 816.701 391.424 L 816.701 391.424 L 816.701 391.424 Q 820.305 389.684 825.792 389.684 L 825.792 389.684 L 825.792 389.684 Q 827.406 389.684 829.235 389.925 L 829.235 389.925 L 829.235 389.925 Q 831.064 390.167 832.839 390.505 L 832.839 390.505 L 832.839 390.505 Q 834.615 390.844 836.121 391.327 L 836.121 391.327 L 836.121 391.327 Q 837.627 391.811 838.488 392.391 L 838.488 392.391 L 834.292 399.352 L 834.292 399.352 Q 832.786 398.578 830.688 398.385 L 830.688 398.385 L 830.688 398.385 Q 828.59 398.191 827.729 398.191 Z  M 865.494 410.663 L 865.494 465.19 L 852.367 465.19 L 852.367 410.663 L 865.494 410.663 L 865.494 410.663 Z  M 866.677 393.261 L 866.677 393.261 L 866.677 393.261 Q 866.677 396.161 864.418 398.143 L 864.418 398.143 L 864.418 398.143 Q 862.158 400.125 858.931 400.125 L 858.931 400.125 L 858.931 400.125 Q 855.703 400.125 853.497 398.095 L 853.497 398.095 L 853.497 398.095 Q 851.291 396.064 851.291 393.261 L 851.291 393.261 L 851.291 393.261 Q 851.291 390.36 853.551 388.33 L 853.551 388.33 L 853.551 388.33 Q 855.81 386.3 858.931 386.3 L 858.931 386.3 L 858.931 386.3 Q 862.158 386.3 864.418 388.33 L 864.418 388.33 L 864.418 388.33 Q 866.677 390.36 866.677 393.261 Z  M 882.386 426.229 L 882.386 426.229 L 882.386 426.229 Q 882.386 422.555 883.892 419.606 L 883.892 419.606 L 883.892 419.606 Q 885.398 416.657 888.088 414.579 L 888.088 414.579 L 888.088 414.579 Q 890.778 412.5 894.167 411.292 L 894.167 411.292 L 894.167 411.292 Q 897.556 410.083 901.214 409.793 L 901.214 409.793 L 901.214 419.461 L 901.214 419.461 Q 898.417 419.944 896.857 421.491 L 896.857 421.491 L 896.857 421.491 Q 895.297 423.038 895.297 425.842 L 895.297 425.842 L 895.297 425.842 Q 895.297 428.162 896.964 429.564 L 896.964 429.564 L 896.964 429.564 Q 898.632 430.966 901.214 432.029 L 901.214 432.029 L 901.214 442.374 L 901.214 442.374 Q 899.385 441.891 897.502 441.262 L 897.502 441.262 L 897.502 441.262 Q 895.619 440.634 893.79 439.86 L 893.79 439.86 L 893.79 439.86 Q 888.088 437.153 885.237 434.156 L 885.237 434.156 L 885.237 434.156 Q 882.386 431.159 882.386 426.229 Z  M 922.517 414.144 L 918.321 422.168 L 918.321 422.168 Q 915.416 420.814 912.135 420.138 L 912.135 420.138 L 912.135 420.138 Q 908.853 419.461 905.625 419.268 L 905.625 419.268 L 905.625 409.696 L 905.625 409.696 Q 910.467 409.89 914.556 410.905 L 914.556 410.905 L 914.556 410.905 Q 918.644 411.92 922.517 414.144 L 922.517 414.144 L 922.517 414.144 Z  M 882.601 460.84 L 888.088 453.009 L 888.088 453.009 Q 890.24 454.362 893.199 455.522 L 893.199 455.522 L 893.199 455.522 Q 896.157 456.683 900.676 456.683 L 900.676 456.683 L 901.214 456.683 L 901.214 465.674 L 901.214 465.674 Q 898.524 465.674 896.265 465.529 L 896.265 465.529 L 896.265 465.529 Q 894.006 465.384 891.8 464.852 L 891.8 464.852 L 891.8 464.852 Q 889.594 464.32 887.335 463.354 L 887.335 463.354 L 887.335 463.354 Q 885.075 462.387 882.601 460.84 L 882.601 460.84 L 882.601 460.84 Z  M 905.625 443.824 L 905.625 433.576 L 905.625 433.576 Q 908.853 434.543 912.189 435.703 L 912.189 435.703 L 912.189 435.703 Q 915.524 436.863 918.268 438.604 L 918.268 438.604 L 918.268 438.604 Q 921.011 440.344 922.786 442.906 L 922.786 442.906 L 922.786 442.906 Q 924.562 445.468 924.562 449.335 L 924.562 449.335 L 924.562 449.335 Q 924.562 453.105 923.055 455.909 L 923.055 455.909 L 923.055 455.909 Q 921.549 458.713 919.021 460.743 L 919.021 460.743 L 919.021 460.743 Q 916.492 462.773 913.049 463.934 L 913.049 463.934 L 913.049 463.934 Q 909.606 465.094 905.625 465.48 L 905.625 465.48 L 905.625 456.296 L 905.625 456.296 Q 909.284 455.716 911.274 454.217 L 911.274 454.217 L 911.274 454.217 Q 913.264 452.719 913.264 450.205 L 913.264 450.205 L 913.264 450.205 Q 913.264 447.691 911.059 446.29 L 911.059 446.29 L 911.059 446.29 Q 908.853 444.888 905.625 443.824 L 905.625 443.824 L 905.625 443.824 Z  M 941.454 465.19 L 941.454 390.07 L 954.472 390.07 L 954.472 465.19 L 941.454 465.19 L 941.454 465.19 Z  M 986.642 416.657 L 986.642 416.657 L 986.642 416.657 Q 988.471 418.301 989.493 420.476 L 989.493 420.476 L 989.493 420.476 Q 990.516 422.651 991 425.02 L 991 425.02 L 991 425.02 Q 991.484 427.389 991.592 429.806 L 991.592 429.806 L 991.592 429.806 Q 991.699 432.223 991.699 434.543 L 991.699 434.543 L 991.699 463.257 L 991.699 465.19 L 978.573 465.19 L 978.573 435.51 L 978.573 435.51 Q 978.573 432.223 978.25 429.226 L 978.25 429.226 L 978.25 429.226 Q 977.927 426.229 976.744 423.908 L 976.744 423.908 L 976.744 423.908 Q 975.56 421.588 973.516 420.283 L 973.516 420.283 L 973.516 420.283 Q 971.472 418.978 967.814 418.978 L 967.814 418.978 L 967.814 418.978 Q 966.307 418.978 963.779 419.413 L 963.779 419.413 L 963.779 419.413 Q 961.251 419.848 958.884 420.814 L 958.884 420.814 L 958.884 413.37 L 958.884 413.37 Q 961.789 412.017 965.178 411.05 L 965.178 411.05 L 965.178 411.05 Q 968.567 410.083 971.795 410.083 L 971.795 410.083 L 971.795 410.083 Q 976.636 410.083 979.972 411.872 L 979.972 411.872 L 979.972 411.872 Q 983.307 413.66 986.642 416.657 Z " fill="rgb(0,0,0)"/></g></svg>